<?xml version="1.0" encoding="utf-8"?>
<!-- Generator: Adobe Illustrator 19.0.1, SVG Export Plug-In . SVG Version: 6.00 Build 0)  -->
<svg version="1.1" id="Warstwa_1" xmlns="http://www.w3.org/2000/svg" xmlns:xlink="http://www.w3.org/1999/xlink" x="0px" y="0px"
	 viewBox="0 0 566.9 170.1" style="enable-background:new 0 0 566.9 170.1;" xml:space="preserve">
<style type="text/css">
	.st0{fill:#FFFFFF;}
</style>
<g id="Warstwa_1_1_">
	<g>
		<path class="st0" d="M66.3,72.3l-11.1,6.6c-2.1-3.7-4-6.1-5.8-7.1c-1.8-1.3-4.5-1.8-7.7-1.8c-3.7,0-6.9,1.1-9.5,3.2
			s-3.7,4.8-3.7,7.9c0,4.5,3.2,7.9,9.8,10.8l9,3.7c7.4,2.9,12.7,6.6,16.1,10.8c3.4,4.2,5,9.5,5,15.8c0,8.4-2.9,15.3-8.4,20.6
			c-5.5,5.5-12.7,8.2-20.9,8.2c-7.9,0-14.3-2.4-19.5-7.1c-5-4.8-8.2-11.4-9.5-19.8l14-3.2c0.5,5.3,1.8,9,3.2,11.1
			c2.9,4,6.9,5.8,12.4,5.8c4.2,0,7.9-1.3,10.6-4.2c2.9-2.9,4.2-6.6,4.2-10.8c0-1.8-0.3-3.4-0.8-4.8c-0.5-1.6-1.3-2.9-2.4-4
			c-1.1-1.3-2.4-2.4-4-3.4c-1.6-1.1-3.7-2.1-5.8-3.2l-8.7-3.7C20.3,98.5,14,90.8,14,80.8c0-6.9,2.6-12.4,7.9-17.2s11.6-6.9,19.5-6.9
			C52.3,57,60.5,62.3,66.3,72.3z"/>
		<path class="st0" d="M119.9,92.4h13.2v57.3h-13.2v-6.1c-5.5,5-11.4,7.7-17.7,7.7c-7.9,0-14.5-2.9-19.5-8.4
			c-5-5.8-7.7-13.2-7.7-21.9s2.6-15.8,7.7-21.4c5-5.8,11.6-8.4,19.3-8.4c6.6,0,12.7,2.6,18,8.2C119.9,99.3,119.9,92.4,119.9,92.4z
			 M88.4,120.9c0,5.5,1.6,10,4.5,13.5c2.9,3.4,6.9,5.3,11.4,5.3c5,0,9-1.6,11.9-5s4.5-7.9,4.5-13.2s-1.6-9.8-4.5-13.2s-6.9-5-11.9-5
			c-4.5,0-8.4,1.8-11.4,5.3C90,111.4,88.4,115.6,88.4,120.9z"/>
		<path class="st0" d="M193,77.4h-13.2v-5.3c0-2.9-1.1-5.5-2.9-7.7c-2.1-2.1-4.5-3.4-7.4-3.4s-5.3,1.1-7.1,3.2s-2.9,4.8-2.9,7.7
			v20.3h15v12.4h-15v44.9h-13.2v-44.9h-4.8V92.1h4.8V71.8c0-6.3,2.4-11.9,6.9-16.4s10-6.9,16.6-6.9c6.3,0,11.9,2.4,16.4,6.9
			s6.9,10,6.9,16.4v5.6H193z M193,149.7h-13.2V92.4H193V149.7z"/>
		<path class="st0" d="M253.7,72.3l-11.1,6.6c-2.1-3.7-4-6.1-5.8-7.1c-1.8-1.3-4.5-1.8-7.7-1.8c-3.7,0-6.9,1.1-9.5,3.2
			s-3.7,4.8-3.7,7.9c0,4.5,3.2,7.9,9.8,10.8l9,3.7c7.4,2.9,12.7,6.6,16.1,10.8s5,9.5,5,15.8c0,8.4-2.9,15.3-8.4,20.6
			c-5.5,5.5-12.7,8.2-20.9,8.2c-7.9,0-14.3-2.4-19.5-7.1c-5-4.8-8.2-11.4-9.5-19.8l14-3.2c0.5,5.3,1.8,9,3.2,11.1
			c2.9,4,6.9,5.8,12.4,5.8c4.2,0,7.9-1.3,10.6-4.2c2.9-2.9,4.2-6.6,4.2-10.8c0-1.8-0.3-3.4-0.8-4.8c-0.5-1.6-1.3-2.9-2.4-4
			c-1.1-1.3-2.4-2.4-4-3.4c-1.6-1.1-3.7-2.1-5.8-3.2l-8.7-3.7c-12.4-5.3-18.7-12.9-18.7-23c0-6.9,2.6-12.4,7.9-17.2
			c5.3-4.8,11.6-6.9,19.5-6.9C239.7,57,247.9,62.3,253.7,72.3z"/>
		<path class="st0" d="M276.4,104.8v44.9h-13.2v-44.9h-5.5V92.4h5.5V71.6h13.2v20.9h10.3v12.4L276.4,104.8L276.4,104.8z"/>
		<path class="st0" d="M301.5,92.4v32.7c0,9.5,3.7,14.3,11.4,14.3c7.4,0,11.4-4.8,11.4-14.3V92.4h13.2v33.3c0,4.5-0.5,8.4-1.6,11.9
			c-1.1,2.9-2.9,5.5-5.8,7.9c-4.5,4-10,5.8-17.2,5.8c-6.9,0-12.4-1.8-16.9-5.8c-2.6-2.4-4.8-5-5.8-7.9c-1.1-2.6-1.6-6.6-1.6-11.9
			V92.4H301.5z"/>
		<path class="st0" d="M387.5,50.4h13.2v99.3h-13.2v-6.1c-5.3,5-11.1,7.7-17.7,7.7c-7.9,0-14.3-2.9-19.5-8.4
			c-5-5.8-7.7-13.2-7.7-21.9c0-8.4,2.6-15.6,7.7-21.4c5-5.8,11.6-8.7,19.3-8.7c6.6,0,12.7,2.6,18,8.2L387.5,50.4L387.5,50.4z
			 M356.4,120.9c0,5.5,1.6,10,4.5,13.5c2.9,3.4,6.9,5.3,11.4,5.3c5,0,9-1.6,11.9-5s4.5-7.9,4.5-13.2s-1.6-9.8-4.5-13.2
			c-2.9-3.4-6.9-5-11.9-5c-4.5,0-8.4,1.8-11.4,5.3C357.7,111.4,356.4,115.6,356.4,120.9z"/>
		<path class="st0" d="M407.9,68.6c0-2.4,0.8-4.2,2.6-6.1c1.6-1.6,3.7-2.6,6.1-2.6s4.5,0.8,6.1,2.6c1.6,1.6,2.6,3.7,2.6,6.1
			s-0.8,4.5-2.6,6.1c-1.6,1.6-3.7,2.6-6.1,2.6s-4.5-0.8-6.1-2.6C408.7,73.1,407.9,71,407.9,68.6z M423.2,92.4v57.3H410V92.4H423.2z"
			/>
		<path class="st0" d="M428.7,120.7c0-8.2,2.9-15.3,9-21.1c5.8-5.8,13.2-8.7,21.6-8.7s15.8,2.9,21.6,8.7c5.8,5.8,8.7,12.9,8.7,21.4
			c0,8.4-2.9,15.8-9,21.6s-13.2,8.7-21.9,8.7s-15.8-2.9-21.6-8.7C431.6,136.8,428.7,129.4,428.7,120.7z M442.2,120.9
			c0,5.8,1.6,10.3,4.5,13.5c3.2,3.4,7.4,5,12.4,5c5.3,0,9.2-1.6,12.4-5c3.2-3.4,4.8-7.7,4.8-13.5c0-5.5-1.6-10-4.8-13.5
			s-7.4-5-12.4-5s-9.2,1.6-12.4,5S442.2,115.6,442.2,120.9z"/>
	</g>
</g>
<g id="Layer_2">
	<g>
		<path class="st0" d="M503.2,25.9c-2.9,19.8-19.8,35.4-40.4,35.6v14.3c20.3-0.3,38-11.4,47.8-27.7C506.6,41.5,504,33.8,503.2,25.9z
			"/>
		<path class="st0" d="M531.4,68.1c6.6-3.7,14.3-6.3,22.2-7.1c-19.8-2.9-35.4-19.8-35.6-40.4h-14.3
			C503.7,40.9,514.8,58.6,531.4,68.1z"/>
		<path class="st0" d="M490.2,68.9c-6.9,4-14.3,6.3-21.9,7.1c19.8,2.9,35.1,19.8,35.4,40.4H518C517.7,97.2,507.1,78.9,490.2,68.9z"
			/>
		<path class="st0" d="M511.4,89.2c4,6.9,6.3,14.3,7.1,22.2c2.6-20.1,19.8-35.4,40.4-35.6V61.5C538.6,61.5,520.9,72.6,511.4,89.2z"
			/>
	</g>
</g>
</svg>
